<?xml version="1.0" encoding="utf-8"?>
<!-- Generator: Adobe Illustrator 15.1.0, SVG Export Plug-In . SVG Version: 6.00 Build 0)  -->
<!DOCTYPE svg PUBLIC "-//W3C//DTD SVG 1.1//EN" "http://www.w3.org/Graphics/SVG/1.1/DTD/svg11.dtd">
<svg version="1.1" id="Layer_1" xmlns="http://www.w3.org/2000/svg" xmlns:xlink="http://www.w3.org/1999/xlink" x="0px" y="0px"
	 width="283.46px" height="283.46px" viewBox="0 0 283.46 283.46" enable-background="new 0 0 283.46 283.46" xml:space="preserve">
<g>
	<polygon fill="#FFFFFF" points="102.761,256.495 267.065,235.424 267.065,247.098 102.761,277.26 15.877,253.764 15.877,240.123 	
		"/>
	<polygon fill="#FFFFFF" points="102.931,247.098 266.894,230.421 267.065,218.449 102.761,226.025 15.877,220.114 15.877,233.909 	
		"/>
	<polygon fill="#FFFFFF" points="266.894,213.293 266.894,201.166 102.761,195.255 15.877,199.801 16.048,214.049 102.931,216.476 	
		"/>
	<polygon fill="#FFFFFF" points="16.116,146.293 112.244,85.499 266.894,164.812 266.894,176.177 110.929,105.72 16.116,157.979 	
		"/>
	<polygon fill="#FFFFFF" points="18.832,96.085 123.699,4.627 266.894,136.621 266.894,147.99 120.979,24.851 17.742,108.558 	"/>
	<polygon fill="#FFFFFF" points="105.057,154.009 266.894,184.654 267.065,196.627 103.48,175.077 15.877,194.964 15.877,181.17 	
		"/>
	<polygon fill="#FFFFFF" points="17.847,108.502 52.304,118.194 52.027,115.69 20.387,98.963 	"/>
	<polygon fill="#FFFFFF" points="16.116,157.979 52.979,162.389 47.556,158.533 16.498,148.37 	"/>
	<polygon fill="#FFFFFF" points="266.894,147.99 244.82,147.257 264.295,141.694 	"/>
	<polygon fill="#FFFFFF" points="266.894,176.177 249.832,176.748 261.516,171.739 	"/>
</g>
<g opacity="0.25">
	<polygon fill="#546F7B" points="102.754,256.529 102.754,277.296 15.871,253.799 15.871,240.159 	"/>
	<polygon fill="#546F7B" points="102.924,247.131 102.754,226.062 15.871,220.15 15.871,233.943 	"/>
	<polygon fill="#546F7B" points="102.754,195.29 15.871,199.838 16.04,214.086 102.924,216.513 	"/>
	<polygon fill="#546F7B" points="103.612,175.041 105.057,154.009 15.877,181.17 15.877,194.964 	"/>
	<polygon fill="#546F7B" points="110.929,105.72 28.915,152.135 47.556,158.533 53.119,162.431 16.116,157.979 16.116,146.293 
		112.244,85.499 	"/>
	<polygon fill="#546F7B" points="123.781,4.684 121.26,24.715 27.264,102.335 52.027,115.69 52.304,118.194 17.742,108.558 
		18.919,95.938 	"/>
</g>
</svg>
