<?xml version="1.0" encoding="utf-8"?>
<!-- Generator: Adobe Illustrator 15.1.0, SVG Export Plug-In . SVG Version: 6.00 Build 0)  -->
<!DOCTYPE svg PUBLIC "-//W3C//DTD SVG 1.1//EN" "http://www.w3.org/Graphics/SVG/1.1/DTD/svg11.dtd">
<svg version="1.1" id="Layer_1" xmlns="http://www.w3.org/2000/svg" xmlns:xlink="http://www.w3.org/1999/xlink" x="0px" y="0px"
	 width="283.46px" height="283.46px" viewBox="0 0 283.46 283.46" enable-background="new 0 0 283.46 283.46" xml:space="preserve">
<g>
	<polygon fill="#546F7B" points="105.761,257.495 270.065,236.424 270.065,248.098 105.761,278.26 18.877,254.764 18.877,241.123 	
		"/>
	<polygon fill="#546F7B" points="105.931,248.098 269.894,231.421 270.065,219.449 105.761,227.025 18.877,221.114 18.877,234.909 	
		"/>
	<polygon fill="#546F7B" points="269.894,214.293 269.894,202.166 105.761,196.255 18.877,200.801 19.048,215.049 105.931,217.476 	
		"/>
	<polygon fill="#546F7B" points="19.116,147.293 115.244,86.499 269.894,165.812 269.894,177.177 113.929,106.72 19.116,158.979 	
		"/>
	<polygon fill="#546F7B" points="21.832,97.085 126.699,5.627 269.894,137.621 269.894,148.99 123.979,25.851 20.742,109.558 	"/>
	<polygon fill="#546F7B" points="108.057,155.009 269.894,185.654 270.065,197.627 106.48,176.077 18.877,195.964 18.877,182.17 	
		"/>
	<polygon fill="#546F7B" points="20.847,109.502 55.304,119.194 55.027,116.69 23.387,99.963 	"/>
	<polygon fill="#546F7B" points="19.116,158.979 55.979,163.389 50.556,159.533 19.498,149.37 	"/>
	<polygon fill="#546F7B" points="269.894,148.99 247.82,148.257 267.295,142.694 	"/>
	<polygon fill="#546F7B" points="269.894,177.177 252.832,177.748 264.516,172.739 	"/>
</g>
<g>
	<polygon fill="#3E525B" points="105.754,257.529 105.754,278.296 18.871,254.799 18.871,241.159 	"/>
	<polygon fill="#3E525B" points="105.924,248.131 105.754,227.062 18.871,221.15 18.871,234.943 	"/>
	<polygon fill="#3E525B" points="105.754,196.29 18.871,200.838 19.04,215.086 105.924,217.513 	"/>
	<polygon fill="#3E525B" points="106.612,176.041 108.057,155.009 18.877,182.17 18.877,195.964 	"/>
	<polygon fill="#3E525B" points="113.929,106.72 31.915,153.135 50.556,159.533 56.119,163.431 19.116,158.979 19.116,147.293 
		115.244,86.499 	"/>
	<polygon fill="#3E525B" points="126.781,5.684 124.26,25.715 30.264,103.335 55.027,116.69 55.304,119.194 20.742,109.558 
		21.919,96.938 	"/>
</g>
</svg>
