<?xml version="1.0" encoding="utf-8"?>
<!-- Generator: Adobe Illustrator 15.1.0, SVG Export Plug-In . SVG Version: 6.00 Build 0)  -->
<!DOCTYPE svg PUBLIC "-//W3C//DTD SVG 1.1//EN" "http://www.w3.org/Graphics/SVG/1.1/DTD/svg11.dtd">
<svg version="1.1" id="Layer_1" xmlns="http://www.w3.org/2000/svg" xmlns:xlink="http://www.w3.org/1999/xlink" x="0px" y="0px"
	 width="283.46px" height="283.46px" viewBox="0 0 283.46 283.46" enable-background="new 0 0 283.46 283.46" xml:space="preserve">
<path fill="#556F7B" d="M6.397,263.258c0,7.827,6.346,14.173,14.174,14.173h243.301c7.826,0,14.172-6.346,14.172-14.173V19.957
	c0-7.828-6.346-14.173-14.172-14.173H20.571c-7.828,0-14.174,6.346-14.174,14.173V263.258z"/>
<g>
	<polygon fill="#FFFFFF" points="110.479,236.197 240.612,219.507 240.612,228.753 110.479,252.642 41.665,234.033 41.665,223.229 	
		"/>
	<polygon fill="#FFFFFF" points="110.614,228.753 240.475,215.545 240.612,206.063 110.479,212.065 41.665,207.382 41.665,218.308 	
		"/>
	<polygon fill="#FFFFFF" points="240.475,201.98 240.475,192.375 110.479,187.693 41.665,191.293 41.799,202.578 110.614,204.5 	"/>
	<polygon fill="#FFFFFF" points="41.854,148.915 117.989,100.764 240.475,163.582 240.475,172.583 116.948,116.78 41.854,158.17 	
		"/>
	<polygon fill="#FFFFFF" points="44.004,109.148 127.061,36.712 240.475,141.254 240.475,150.258 124.907,52.729 43.142,119.027 	
		"/>
	<polygon fill="#FFFFFF" points="112.297,155.025 240.475,179.297 240.612,188.78 111.047,171.712 41.665,187.462 41.665,176.538 	
		"/>
	<polygon fill="#FFFFFF" points="43.225,118.983 70.516,126.659 70.295,124.677 45.237,111.427 	"/>
	<polygon fill="#FFFFFF" points="41.854,158.17 71.05,161.663 66.754,158.608 42.157,150.559 	"/>
	<polygon fill="#FFFFFF" points="240.475,150.258 222.993,149.678 238.417,145.272 	"/>
	<polygon fill="#FFFFFF" points="240.475,172.583 226.961,173.035 236.216,169.069 	"/>
</g>
<g opacity="0.25">
	<polygon fill="#556F7B" points="110.473,236.223 110.473,252.671 41.66,234.061 41.66,223.257 	"/>
	<polygon fill="#556F7B" points="110.608,228.781 110.473,212.093 41.66,207.411 41.66,218.334 	"/>
	<polygon fill="#556F7B" points="110.473,187.721 41.66,191.323 41.793,202.607 110.608,204.529 	"/>
	<polygon fill="#556F7B" points="111.153,171.683 112.297,155.025 41.665,176.538 41.665,187.462 	"/>
	<polygon fill="#556F7B" points="116.948,116.78 51.991,153.542 66.754,158.608 71.161,161.696 41.854,158.17 41.854,148.915 
		117.989,100.764 	"/>
	<polygon fill="#556F7B" points="127.127,36.757 125.129,52.622 50.683,114.099 70.295,124.677 70.516,126.659 43.142,119.027 
		44.075,109.032 	"/>
</g>
</svg>
